<svg t="1596701082059" class="icon" viewBox="0 0 1024 1024" version="1.1" xmlns="http://www.w3.org/2000/svg" p-id="9504" width="200" height="200"><path d="M313.344 920a450.816 450.816 0 0 1-39.168-0.96l-0.064 0.576C152.256 914.112 56.704 811.968 56.704 687.168v-58.432c0-112.576 61.504-200.192 157.248-225.472v-21.056C167.552 361.152 142.08 314.24 142.08 249.344c0-80.128 63.744-145.408 142.144-145.408 78.464 0 142.208 65.28 142.208 145.408 0 64.896-25.472 111.872-71.872 132.928v21.12c15.552 4.416 25.472 10.88 36.16 18.752 18.624-16 61.632-45.824 102.336-45.824 46.912 0 89.664 22.976 116.352 62.08a195.84 195.84 0 0 1 60.096-34.432v-21.76c-46.4-21.056-71.936-67.968-71.936-132.864 0-80.128 63.872-145.408 142.144-145.408 78.528 0 142.272 65.28 142.272 145.408 0 64.896-25.408 111.872-71.872 132.928v21.056c95.808 25.28 157.248 112.896 157.248 225.472v58.432c0 128.32-102.08 232.832-227.648 232.832-3.2 0-7.424 0-11.84-0.128l-6.784-0.128v0.256h-56.832l-0.896-8.192c-9.92-90.816-67.904-152.448-147.776-156.736l-8.704-0.448V610.56l8.256-0.896c40.32-4.096 64.448-37.12 64.448-87.936 0-49.088-38.848-88.896-86.592-88.896-47.616 0-86.464 39.808-86.464 88.896 0 50.816 24.064 83.84 64.384 87.936l8.256 0.896-0.064 144.128-8.704 0.384c-79.872 4.288-137.856 65.92-147.84 156.736l-0.96 8.32-8.256-0.128z m396.864-70.08c10.752 1.984 20.352 3.008 29.568 3.008 94.4 0 171.2-79.488 171.2-177.216V640c0-85.888-43.2-151.296-112.704-170.88l-44.672-7.232V338.048l8.384-0.896c47.36-4.8 64.384-48.576 64.384-87.872 0-49.024-38.912-88.896-86.592-88.896-47.552 0-86.464 39.872-86.464 88.896 0 39.296 16.96 83.008 64.384 87.872l8.32 0.896v124.224l-8.192 1.024a363.2 363.2 0 0 0-36.544 5.888c-14.208 3.968-31.04 18.176-47.488 32.576 1.024 7.04 1.408 13.504 1.408 20.032 0 65.088-25.344 111.936-71.808 133.12v40.192c70.144 18.624 121.856 73.216 146.816 154.816zM284.16 160.384c-47.616 0-86.464 39.872-86.464 88.896 0 39.296 16.96 83.008 64.384 87.872l8.256 0.896v123.84l-45.632 7.552c-68.416 19.328-111.552 84.736-111.552 170.624v35.712c0 94.144 72.064 172.032 161.984 176.96 23.936-83.072 76.032-138.688 147.52-157.632v-40.192c-46.336-21.248-71.808-68.096-71.808-133.184 0-14.528 0.832-29.696 6.272-44.032a61.888 61.888 0 0 0-17.344-9.984c-4.8-1.792-22.272-3.648-33.152-4.416l-8.576-0.576V338.048l8.256-0.896c47.424-4.8 64.384-48.512 64.384-87.808 0-49.088-38.784-88.96-86.528-88.96z" p-id="9505" fill="#1296db"></path></svg>