<svg t="1594546349839" class="icon" viewBox="0 0 1024 1024" version="1.1" xmlns="http://www.w3.org/2000/svg" p-id="3029" width="20" height="20"><path d="M896 327.5h-97.11a287.44 287.44 0 0 0-573.78 0H128a35 35 0 0 0-35 35v549.86a35 35 0 0 0 35 35h768a35 35 0 0 0 35-35V362.5a35 35 0 0 0-35-35zM512 127.9c113.89 0 207.61 88 216.72 199.6H295.28C304.39 215.92 398.11 127.9 512 127.9z m349 749.46H163V397.5h698z" fill="#ffffff" p-id="3030"></path><path d="M484.3 651.15v132.14a27.7 27.7 0 0 0 55.4 0V651.15a98.39 98.39 0 1 0-55.4 0z" fill="#ffffff" p-id="3031"></path></svg>